# This file uses centimeters as units for non-parametric coordinates.

mtllib rocket.mtl
g default
v 0.026507 3.962432 9.802754
v 0.026507 4.242720 9.539730
v -0.151915 4.170568 9.539730
v -0.253141 3.962534 9.539730
v -0.142789 3.756516 9.539730
v 0.026507 3.682065 9.539730
v 0.026507 5.560239 5.484522
v -1.031394 5.148980 5.484522
v -0.992973 2.788912 5.484522
v -1.570660 3.963199 5.484522
v 0.026507 5.586761 3.778005
v -1.049098 5.168676 3.778005
v -1.010087 2.769433 3.778005
v -1.597181 3.963213 3.778005
v 0.026507 2.364547 5.484522
v 0.026507 2.338025 3.778005
v 0.026507 5.077909 1.029652
v -0.707668 4.790793 1.029652
v -0.679388 3.143142 1.029652
v -1.088192 3.962956 1.029652
v 0.026507 5.116134 -3.896317
v -0.706944 3.115069 -3.896317
v -0.735353 4.819180 -3.896317
v 0.026507 5.110643 -3.200948
v -0.731688 4.815103 -3.200948
v 0.026507 4.876209 -3.201489
v -0.575197 4.641008 -3.201489
v -0.703401 3.119101 -3.200948
v -1.121096 3.962972 -3.200948
v -0.886662 3.962854 -3.201489
v -0.552123 3.291273 -3.201489
v -1.126586 3.962975 -3.896317
v 0.026507 4.882553 -3.885399
v -0.579432 4.645719 -3.885399
v -0.556216 3.286614 -3.885399
v -0.893006 3.962857 -3.885399
v 0.026507 2.846877 1.029652
v 0.026507 2.808652 -3.896317
v 0.026507 2.814142 -3.200948
v 0.026507 3.048576 -3.201489
v 0.026507 3.042233 -3.885399
v 0.026507 4.735400 -11.488076
v -0.485053 4.536441 -11.488076
v -0.746153 3.962783 -11.488076
v -0.466389 3.394685 -11.488076
v 0.026507 3.189386 -11.488076
v 0.204930 4.170568 9.539730
v 0.306156 3.962534 9.539730
v 0.195804 3.756516 9.539730
v 1.084409 5.148980 5.484522
v 1.045987 2.788912 5.484522
v 1.623674 3.963199 5.484522
v 1.102113 5.168676 3.778005
v 1.063102 2.769433 3.778005
v 1.650196 3.963213 3.778005
v 0.760683 4.790793 1.029652
v 0.732403 3.143142 1.029652
v 1.141207 3.962956 1.029652
v 0.759958 3.115069 -3.896317
v 0.788368 4.819180 -3.896317
v 0.784703 4.815103 -3.200948
v 0.628212 4.641008 -3.201489
v 0.756416 3.119101 -3.200948
v 1.174111 3.962972 -3.200948
v 0.939677 3.962854 -3.201489
v 0.605138 3.291273 -3.201489
v 1.179601 3.962975 -3.896317
v 0.632447 4.645719 -3.885399
v 0.609231 3.286614 -3.885399
v 0.946021 3.962857 -3.885399
v 0.538068 4.536441 -11.488076
v 0.799168 3.962783 -11.488076
v 0.519404 3.394685 -11.488076
v 0.026507 3.962393 -11.488076
v -0.718781 3.962769 -9.621638
v -0.443979 3.414575 -9.621638
v -0.463271 4.516328 -9.621638
v 0.026507 4.708317 -9.621638
v 0.026507 3.216469 -9.621638
v 0.771796 3.962769 -9.621638
v 0.496994 3.414575 -9.621638
v 0.516286 4.516328 -9.621638
v -0.528433 3.956008 -11.336041
v -0.528777 3.956008 -10.091530
v -2.674493 3.945323 -12.476660
v -2.521198 3.947687 -12.071940
v -0.333365 3.471158 -11.348165
v -0.332671 3.470810 -10.103652
v -1.742896 1.599044 -12.493881
v -1.645545 1.734469 -12.089216
v -0.344111 4.442504 -11.336893
v -0.343663 4.442856 -10.092381
v -1.787388 6.319890 -12.477869
v -1.683543 6.186341 -12.073143
v 0.026520 4.614620 -11.335987
v 0.026520 4.615094 -10.091475
v 0.025470 7.163953 -12.476584
v 0.027564 6.981865 -12.071877
v 0.026520 3.296035 -11.335987
v 0.026520 3.295562 -10.091475
v 0.027563 0.746703 -12.476584
v 0.025470 0.928790 -12.071877
v 0.581478 3.953011 -11.336021
v 0.581822 3.953011 -10.091510
v 2.727571 3.939658 -12.476632
v 2.574219 3.937050 -12.071938
v 0.386724 3.471509 -11.348205
v 0.386030 3.471162 -10.103692
v 1.798325 1.601690 -12.493937
v 1.697918 1.733740 -12.089218
v 0.396832 4.442859 -11.336862
v 0.396384 4.443211 -10.092350
v 1.838028 6.322556 -12.477827
v 1.737236 6.185606 -12.073141
vt 0.275224 0.348153
vt 0.973856 0.702438
vt 0.970680 0.714899
vt 0.970010 0.725634
vt 0.221139 0.348249
vt 0.980081 0.691047
vt 0.761452 0.679685
vt 0.759006 0.727767
vt 0.793123 0.563878
vt 0.771724 0.623043
vt 0.827308 0.942515
vt 0.686245 0.667879
vt 0.685304 0.728580
vt 0.690590 0.601430
vt 0.697200 0.547112
vt 0.704167 0.959679
vt 0.527283 0.548212
vt 0.215444 0.568035
vt 0.217122 0.625230
vt 0.529968 0.612317
vt 0.531191 0.675547
vt 0.531916 0.730084
vt 0.218535 0.682888
vt 0.199034 0.734578
vt 0.137621 0.634671
vt 0.179428 0.633287
vt 0.175962 0.577561
vt 0.133220 0.577868
vt 0.182440 0.688259
vt 0.184549 0.735185
vt 0.141092 0.689966
vt 0.143449 0.736914
vt 0.972321 0.176953
vt 0.972908 0.227374
vt 0.970913 0.118711
vt 0.968203 0.059662
vt 0.528370 0.965987
vt 0.218046 0.944995
vt 0.192004 0.942215
vt 0.147398 0.947815
vt 0.967353 0.445235
vt 0.349648 0.134127
vt 0.504861 0.135594
vt 0.503348 0.085260
vt 0.350550 0.083054
vt 0.347133 0.230558
vt 0.506109 0.229749
vt 0.505729 0.186043
vt 0.348466 0.185336
vt 0.501624 0.043813
vt 0.351379 0.040079
vt 0.970899 0.736360
vt 0.974327 0.748767
vt 0.980780 0.760031
vt 0.762428 0.775797
vt 0.773859 0.832219
vt 0.796454 0.890946
vt 0.687143 0.789244
vt 0.692456 0.855563
vt 0.699803 0.909693
vt 0.530975 0.911997
vt 0.532358 0.847859
vt 0.219314 0.841329
vt 0.203601 0.890712
vt 0.532297 0.784623
vt 0.200818 0.782167
vt 0.146265 0.839299
vt 0.146680 0.896268
vt 0.189293 0.892968
vt 0.188030 0.837163
vt 0.186393 0.782124
vt 0.145056 0.783897
vt 0.972826 0.277801
vt 0.972006 0.336059
vt 0.969898 0.395130
vt 0.348925 0.275763
vt 0.506168 0.273458
vt 0.505809 0.323915
vt 0.350629 0.326952
vt 0.352057 0.378016
vt 0.504804 0.374260
vt 0.185929 0.160228
vt 0.331557 0.160228
vt 0.292881 0.067371
vt 0.185856 0.014665
vt 0.077784 0.063854
vt 0.040301 0.160228
vt 0.292881 0.253085
vt 0.185856 0.305791
vt 0.077784 0.256602
vt 0.986585 0.683090
vt 0.231431 0.312956
vt 0.274900 0.294802
vt 0.318407 0.311332
vt 0.329182 0.348136
vt 0.231544 0.383497
vt 0.275005 0.401569
vt 0.318440 0.384963
vt 0.503499 0.415722
vt 0.114210 0.532089
vt 0.353325 0.420987
vt 0.129571 0.526437
vt 0.213718 0.521588
vt 0.526259 0.494277
vt 0.174483 0.528247
vt 0.701380 0.497012
vt 0.822931 0.511696
vt 0.987442 0.767860
vt 0.187374 0.534779
vt 0.204281 0.934626
vt 0.218814 0.898534
vt 0.202341 0.836657
vt 0.219551 0.783654
vt 0.219277 0.733268
vt 0.190410 0.578603
vt 0.193727 0.632582
vt 0.196808 0.687007
vt 0.131609 0.943483
vt 0.965147 0.009583
vt 0.132251 0.896070
vt 0.132166 0.840203
vt 0.130892 0.785150
vt 0.129197 0.737519
vt 0.118857 0.579281
vt 0.123492 0.634957
vt 0.126869 0.689917
vt 0.151719 0.344035
vt 0.032221 0.398443
vt 0.303253 0.489630
vt 0.353730 0.483126
vt 0.151723 0.344036
vt 0.032164 0.398422
vt 0.303255 0.489636
vt 0.353732 0.483132
vt 0.151723 0.344032
vt 0.032162 0.398476
vt 0.303255 0.489636
vt 0.353732 0.483132
vt 0.151718 0.344037
vt 0.032229 0.398406
vt 0.303252 0.489627
vt 0.353728 0.483122
vt 0.151713 0.344034
vt 0.032301 0.398450
vt 0.303252 0.489627
vt 0.353728 0.483123
vt 0.151721 0.344030
vt 0.032187 0.398501
vt 0.303253 0.489631
vt 0.353730 0.483126
vt 0.151714 0.344036
vt 0.032288 0.398423
vt 0.303256 0.489636
vt 0.353732 0.483133
vt 0.151722 0.344031
vt 0.032176 0.398490
vt 0.303254 0.489633
vt 0.353731 0.483129
vn -0.000000 0.005096 -0.999987
vn 0.806180 0.010423 -0.591579
vn 0.613377 -0.638842 -0.464382
vn -0.000001 -0.807013 -0.590534
vn 0.000000 0.810422 -0.585847
vn 0.615188 0.643769 -0.455089
vn 0.677506 -0.717011 -0.163955
vn 0.000000 -0.986330 -0.164780
vn 0.675432 0.719745 -0.160495
vn 0.986117 0.015415 -0.165334
vn 0.000000 0.986306 -0.164927
vn 0.684515 -0.724191 0.083587
vn 0.000000 -0.996471 0.083936
vn 0.996325 0.015299 0.084275
vn 0.682162 0.726609 0.081819
vn 0.000000 0.996464 0.084015
vn 0.679700 0.724856 0.112210
vn 0.477651 0.509814 -0.715499
vn 0.684469 0.010837 -0.728962
vn 0.993160 0.015583 0.115715
vn 0.682029 -0.722275 0.114696
vn 0.000000 -0.993324 0.115357
vn 0.476927 -0.505427 -0.719086
vn -0.000000 -0.696696 -0.717367
vn 0.999849 0.015484 -0.007925
vn 0.999849 0.015484 -0.007925
vn 0.684156 0.729295 -0.007689
vn 0.684156 0.729295 -0.007689
vn -0.000900 0.002306 -0.999997
vn -0.000900 0.002306 -0.999997
vn 0.686664 -0.726932 -0.007863
vn 0.686664 -0.726932 -0.007863
vn -0.000000 -0.999969 -0.007906
vn -0.000000 -0.999969 -0.007906
vn -0.002300 -0.001141 -0.999997
vn -0.002300 -0.001141 -0.999997
vn -0.002301 0.001054 -0.999997
vn -0.002301 0.001054 -0.999997
vn -0.018188 0.046607 0.998748
vn 0.446492 -0.473567 0.759196
vn 0.000000 -0.652447 0.757834
vn -0.018188 0.046607 0.998748
vn 0.639949 0.010098 0.768351
vn -0.046455 -0.023055 0.998654
vn -0.046455 -0.023055 0.998654
vn 0.447507 0.478106 0.755746
vn -0.046495 0.021292 0.998692
vn -0.046495 0.021292 0.998692
vn 0.000000 0.993313 0.115449
vn 0.000000 0.692952 -0.720984
vn -0.000965 -0.002304 -0.999997
vn -0.000965 -0.002304 -0.999997
vn 0.000000 0.999969 -0.007911
vn 0.000000 0.999969 -0.007911
vn -0.019491 -0.046575 0.998725
vn 0.000000 0.648608 0.761123
vn -0.019491 -0.046575 0.998725
vn 0.999752 0.015667 -0.015805
vn 0.999848 0.015805 0.007341
vn 0.683736 0.729694 0.007239
vn 0.683852 0.729465 -0.015065
vn -0.000000 -0.999889 -0.014920
vn -0.000000 -0.999970 0.007746
vn 0.686318 -0.727263 0.007527
vn 0.686403 -0.727063 -0.015163
vn 0.000000 0.999971 0.007668
vn 0.000000 0.999886 -0.015096
vn -0.613377 -0.638842 -0.464381
vn -0.806180 0.010423 -0.591578
vn -0.615187 0.643769 -0.455090
vn -0.677506 -0.717011 -0.163955
vn -0.986117 0.015415 -0.165334
vn -0.675432 0.719745 -0.160495
vn -0.684515 -0.724191 0.083587
vn -0.996325 0.015299 0.084275
vn -0.682162 0.726609 0.081819
vn -0.679700 0.724856 0.112210
vn -0.993160 0.015583 0.115715
vn -0.684469 0.010837 -0.728962
vn -0.477651 0.509814 -0.715499
vn -0.682029 -0.722275 0.114696
vn -0.476927 -0.505427 -0.719086
vn -0.999849 0.015484 -0.007925
vn -0.684156 0.729295 -0.007689
vn -0.684156 0.729295 -0.007689
vn -0.999849 0.015484 -0.007925
vn 0.000900 0.002306 -0.999997
vn 0.000900 0.002306 -0.999997
vn -0.686664 -0.726932 -0.007863
vn -0.686664 -0.726932 -0.007863
vn 0.002300 -0.001141 -0.999997
vn 0.002300 -0.001141 -0.999997
vn 0.002301 0.001054 -0.999997
vn 0.002301 0.001054 -0.999997
vn 0.018189 0.046607 0.998748
vn 0.018189 0.046607 0.998748
vn -0.446492 -0.473567 0.759197
vn -0.639949 0.010098 0.768351
vn -0.447507 0.478106 0.755746
vn 0.046455 -0.023055 0.998654
vn 0.046455 -0.023055 0.998654
vn 0.046495 0.021292 0.998692
vn 0.046495 0.021292 0.998692
vn 0.000965 -0.002304 -0.999997
vn 0.000965 -0.002304 -0.999997
vn 0.019491 -0.046575 0.998725
vn 0.019491 -0.046575 0.998725
vn -0.686403 -0.727063 -0.015163
vn -0.686318 -0.727263 0.007527
vn -0.999848 0.015805 0.007341
vn -0.999752 0.015667 -0.015805
vn -0.683852 0.729465 -0.015065
vn -0.683736 0.729694 0.007239
vn -0.000002 0.000000 1.000000
vn -0.000002 0.000000 1.000000
vn -0.000002 0.000000 1.000000
vn -0.000002 0.000000 1.000000
vn 0.000001 0.000000 1.000000
vn 0.000001 0.000000 1.000000
vn 0.000001 0.000000 1.000000
vn 0.000001 0.000000 1.000000
vn 0.000001 0.000000 1.000000
vn 0.000001 0.000000 1.000000
vn 0.000001 0.000000 1.000000
vn 0.000001 0.000000 1.000000
vn 0.000000 0.000000 1.000000
vn 0.000000 0.000000 1.000000
vn 0.000000 0.000000 1.000000
vn 0.000000 0.000000 1.000000
vn 0.003775 -0.999992 0.001084
vn 0.003775 -0.999992 0.001084
vn 0.003775 -0.999992 0.001084
vn 0.003775 -0.999992 0.001084
vn 0.797449 -0.603383 0.002012
vn 0.797449 -0.603383 0.002012
vn 0.797449 -0.603383 0.002012
vn 0.797449 -0.603383 0.002012
vn -0.793261 -0.608882 0.000989
vn -0.793261 -0.608882 0.000989
vn -0.793261 -0.608882 0.000989
vn -0.793261 -0.608882 0.000989
vn -0.999999 0.000865 0.001365
vn -0.999999 0.000865 0.001365
vn -0.999999 0.000865 0.001365
vn -0.999999 0.000865 0.001365
vn 0.999999 -0.000868 0.001365
vn 0.999999 -0.000868 0.001365
vn 0.999999 -0.000868 0.001365
vn 0.999999 -0.000868 0.001365
vn 0.008898 0.999958 0.002407
vn 0.008898 0.999958 0.002407
vn 0.008898 0.999958 0.002407
vn 0.008898 0.999958 0.002407
vn 0.798439 0.602075 0.000866
vn 0.798439 0.602075 0.000866
vn 0.798439 0.602075 0.000866
vn 0.798439 0.602075 0.000866
vn -0.792272 0.610165 0.001903
vn -0.792272 0.610165 0.001903
vn -0.792272 0.610165 0.001903
vn -0.792272 0.610165 0.001903
s 1
g polySurface12
usemtl polySurface12SG
f 1/1/1 4/97/2 3/98/3 2/95/4
f 1/1/1 6/5/5 5/96/6 4/97/2
f 3/3/3 8/7/7 7/8/8 2/4/4
f 4/2/2 5/6/6 9/9/9 10/10/10
f 3/3/3 4/2/2 10/10/10 8/7/7
f 6/91/5 15/107/11 9/9/9 5/6/6
f 8/7/7 12/12/12 11/13/13 7/8/8
f 14/14/14 10/10/10 9/9/9 13/15/15
f 8/7/7 10/10/10 14/14/14 12/12/12
f 15/107/11 16/106/16 13/15/15 9/9/9
f 19/17/17 31/18/18 30/19/19 20/20/20
f 12/12/12 18/21/21 17/22/22 11/13/13
f 18/21/21 27/23/23 26/114/24 17/22/22
f 20/20/20 14/14/14 13/15/15 19/17/17
f 12/12/12 14/14/14 20/20/20 18/21/21
f 20/20/20 30/19/19 27/23/23 18/21/21
s 2
f 32/25/25 29/26/26 28/27/27 22/28/28
s 1
f 25/29/29 24/30/30 26/24/24 27/117/23
s 2
f 25/29/31 23/31/32 21/32/33 24/30/34
s 1
f 28/27/35 29/26/36 30/116/19 31/115/18
f 27/117/23 30/116/19 29/26/37 25/29/38
s 2
f 25/29/31 29/26/26 32/25/25 23/31/32
s 3
f 23/31/39 34/126/40 33/123/41 21/32/42
f 36/125/43 32/25/44 22/28/45 35/124/46
f 23/31/47 32/25/48 36/125/43 34/126/40
s 1
f 16/106/16 37/104/49 19/17/17 13/15/15
f 37/104/49 40/103/50 31/18/18 19/17/17
f 39/105/51 28/27/52 31/115/18 40/109/50
s 2
f 39/105/53 38/102/54 22/28/28 28/27/27
s 3
f 38/102/55 41/100/56 35/124/46 22/28/57
f 44/42/58 75/43/59 76/44/60 45/45/61
f 42/46/62 78/47/63 77/48/64 43/49/65
f 77/48/64 75/43/59 44/42/58 43/49/65
f 76/44/60 79/50/66 46/51/67 45/45/61
f 36/35/43 35/36/46 76/44/60 75/43/59
f 34/33/40 77/48/64 78/47/63 33/34/41
f 34/33/40 36/35/43 75/43/59 77/48/64
f 41/119/56 79/50/66 76/44/60 35/36/46
s 1
f 1/1/1 2/95/4 47/94/68 48/93/69
f 1/1/1 48/93/69 49/92/70 6/5/5
f 47/52/68 2/4/4 7/8/8 50/55/71
f 48/53/69 52/56/72 51/57/73 49/54/70
f 47/52/68 50/55/71 52/56/72 48/53/69
f 6/108/5 49/54/70 51/57/73 15/11/11
f 50/55/71 7/8/8 11/13/13 53/58/74
f 55/59/75 54/60/76 51/57/73 52/56/72
f 50/55/71 53/58/74 55/59/75 52/56/72
f 15/11/11 51/57/73 54/60/76 16/16/16
f 57/61/77 58/62/78 65/63/79 66/111/80
f 53/58/74 11/13/13 17/22/22 56/65/81
f 56/65/81 17/22/22 26/114/24 62/113/82
f 58/62/78 57/61/77 54/60/76 55/59/75
f 53/58/74 56/65/81 58/62/78 55/59/75
f 58/62/78 56/65/81 62/113/82 65/63/79
s 2
f 67/67/83 59/68/84 63/69/85 64/70/86
s 1
f 61/71/87 62/66/82 26/24/24 24/30/88
s 2
f 61/71/89 24/30/34 21/32/33 60/72/90
s 1
f 63/69/91 66/64/80 65/112/79 64/70/92
f 62/66/82 61/71/93 64/70/94 65/112/79
s 2
f 61/71/89 60/72/90 67/67/83 64/70/86
s 3
f 60/72/95 21/32/96 33/123/41 68/122/97
f 70/121/98 69/120/99 59/68/100 67/67/101
f 60/72/102 68/122/97 70/121/98 67/67/103
s 1
f 16/16/16 54/60/76 57/61/77 37/37/49
f 37/37/49 57/61/77 66/111/80 40/38/50
f 39/39/104 40/110/50 66/64/80 63/69/105
s 2
f 39/39/53 63/69/85 59/68/84 38/40/54
s 3
f 38/40/106 59/68/107 69/120/99 41/118/56
f 42/46/62 71/76/108 82/77/109 78/47/63
f 80/78/110 72/79/111 73/80/112 81/81/113
f 71/76/108 72/79/111 80/78/110 82/77/109
f 73/80/112 46/101/67 79/99/66 81/81/113
f 70/74/98 80/78/110 81/81/113 69/75/99
f 68/73/97 33/34/41 78/47/63 82/77/109
f 68/73/97 82/77/109 80/78/110 70/74/98
f 41/41/56 69/75/99 81/81/113 79/99/66
s off
f 42/87/114 74/82/115 72/85/116 71/86/117
f 44/89/118 45/88/119 46/83/120 74/82/121
f 44/89/122 74/82/123 42/87/124 43/90/125
f 72/85/126 74/82/127 46/83/128 73/84/129
f 83/127/130 84/128/131 86/129/132 85/130/133
f 87/131/134 88/132/135 90/133/136 89/134/137
f 91/135/138 92/136/139 94/137/140 93/138/141
f 95/139/142 96/140/143 98/141/144 97/142/145
f 99/143/146 100/144/147 102/145/148 101/146/149
f 103/147/150 104/148/151 106/149/152 105/150/153
f 107/151/154 108/152/155 110/153/156 109/154/157
f 111/155/158 112/156/159 114/157/160 113/158/161
